PathFileType	4	(X/Y/Z)	C:\Users\Basilio\Documents\Thesis Gigler\squatting_fais\c3dfiles\077\SLS_front_pre1\markers_experimental.trc
DataRate	CameraRate	NumFrames	NumMarkers	Units	OrigDataRate	OrigDataStartFrame	OrigNumFrames
200.000000	200.000000	4	60	mm	200.000000	383	3071
Frame#	Time	FHD			LBHD			RBHD			C7			T10			CLAV			LSHO			LUUPA			LMUPA			LDUPA			LLEP			LMEP			LRAD			LUL			LRFIN			RSHO			RUPA1			RMUPA			RDUPA			RLEP			RMEP			RRAD			RUL			RUFIN			LASI			RASI			USACR			LSACR			RSACR			LTHI1			LTHI2			LTHI3			LTHI4			LLFC			LMFC			LTIB1			LTIB2			LTIB3			LTIB4			LLMAL			LHEE			LMT1			LMT2			LMT5			RTHI			RTHI2			RTHI3			RTHI4			RLFC			RMFC			RTIB1			RTIB2			RTIB3			RTIB4			RLMAL			RMMAL			RHEE			RMT1			RMT2			RMT5			
		X1	Y1	Z1	X2	Y2	Z2	X3	Y3	Z3	X4	Y4	Z4	X5	Y5	Z5	X6	Y6	Z6	X7	Y7	Z7	X8	Y8	Z8	X9	Y9	Z9	X10	Y10	Z10	X11	Y11	Z11	X12	Y12	Z12	X13	Y13	Z13	X14	Y14	Z14	X15	Y15	Z15	X16	Y16	Z16	X17	Y17	Z17	X18	Y18	Z18	X19	Y19	Z19	X20	Y20	Z20	X21	Y21	Z21	X22	Y22	Z22	X23	Y23	Z23	X24	Y24	Z24	X25	Y25	Z25	X26	Y26	Z26	X27	Y27	Z27	X28	Y28	Z28	X29	Y29	Z29	X30	Y30	Z30	X31	Y31	Z31	X32	Y32	Z32	X33	Y33	Z33	X34	Y34	Z34	X35	Y35	Z35	X36	Y36	Z36	X37	Y37	Z37	X38	Y38	Z38	X39	Y39	Z39	X40	Y40	Z40	X41	Y41	Z41	X42	Y42	Z42	X43	Y43	Z43	X44	Y44	Z44	X45	Y45	Z45	X46	Y46	Z46	X47	Y47	Z47	X48	Y48	Z48	X49	Y49	Z49	X50	Y50	Z50	X51	Y51	Z51	X52	Y52	Z52	X53	Y53	Z53	X54	Y54	Z54	X55	Y55	Z55	X56	Y56	Z56	X57	Y57	Z57	X58	Y58	Z58	X59	Y59	Z59	X60	Y60	Z60	

384	1.915	-340.3632507324219	1854.632080078125	-1045.797119140625	-475.9092407226564	1743.9970703125	-1119.864868164063	-484.901336669922	1738.034912109375	-973.5848388671877	-516.6123046875001	1592.568969726563	-1063.284790039063	-485.2947998046876	1253.812377929688	-1048.902221679688	-353.5983276367188	1558.65087890625	-1045.938354492188	-354.7772521972657	1595.758056640625	-1219.014282226563	-172.3856353759766	1548.422973632813	-1308.59423828125	-146.004638671875	1582.435668945313	-1282.92578125	-103.5875091552735	1547.483154296875	-1309.759765625	-39.82141494750977	1557.725708007813	-1300.716064453125	-33.85261154174805	1493.093383789063	-1266.18994140625	245.4479675292969	1612.879760742188	-1171.372802734375	252.3086700439454	1607.748046875	-1251.31005859375	342.7886962890626	1640.778076171875	-1181.463134765625	-376.2015380859376	1595.239379882813	-885.508972167969	-216.9029846191407	1569.107055664063	-777.3037719726565	-192.2280883789063	1595.173217773438	-812.0532836914065	-147.1854553222657	1571.475830078125	-778.824645996094	-82.36434936523439	1581.263916015625	-788.0545654296877	-74.24205017089845	1507.6826171875	-815.0164184570315	201.4451446533204	1617.484252929688	-881.0098876953127	210.6559753417969	1624.375122070313	-803.1877441406252	301.0936584472657	1635.133056640625	-878.0391845703127	-257.0135803222657	1066.30908203125	-1146.445922851563	-304.5709533691407	1117.249755859375	-872.555358886719	-482.469207763672	1146.38623046875	-1042.205078125	-480.6626586914064	1114.313720703125	-1068.563232421875	-493.0102844238282	1114.6796875	-1014.092163085938	-317.4693908691407	848.9893188476565	-1186.775146484375	-288.0185852050782	770.6979980468752	-1176.679809570313	-240.6934356689454	774.0020141601565	-1172.189575195313	-317.9455871582032	720.0219116210939	-1160.415161132813	-291.7010803222657	572.9451293945314	-1128.072998046875	-284.6242065429688	558.0206298828126	-993.5511474609377	-271.1956481933594	350.5658569335938	-1044.744995117188	-303.8576354980469	304.3034667968751	-1112.891845703125	-272.1234436035157	300.5831909179688	-1076.976318359375	-284.5026855468751	225.7391815185547	-1041.53515625	-351.8024902343751	108.6319046020508	-1082.167602539063	-407.171844482422	79.2319793701172	-1027.463134765625	-195.816390991211	56.68509674072267	-1011.304748535156	-192.4188537597657	56.66468429565431	-1053.731079101563	-321.8223876953126	124.3663635253907	-998.345886230469	-161.3673706054688	863.4392089843752	-772.2586669921877	-94.39894866943361	858.9853515625002	-765.8223876953126	-73.3056106567383	885.3553466796877	-771.9699707031252	-51.88956832885744	788.196472167969	-771.434020996094	-11.83382892608643	736.5872192382814	-769.0134887695315	38.1091537475586	744.8164062500001	-889.0915527343752	101.8175735473633	644.2844238281251	-771.3103637695315	80.71429443359376	542.1975708007814	-748.1715087890626	122.2274780273438	560.8666992187501	-759.7615356445314	155.344970703125	527.8265991210939	-796.680114746094	181.0476684570313	333.3675537109376	-762.4442749023439	215.7085113525391	363.6258850097657	-843.1862792968752	157.6939544677735	273.8042297363282	-829.8247070312502	354.3976745605469	375.4012145996094	-775.3355102539065	345.1707153320313	369.1184082031251	-738.5776367187501	332.9989624023438	334.3436279296876	-698.0327148437501	
385	1.92	-340.7899475097657	1854.923950195313	-1046.227661132813	-476.378631591797	1744.228637695313	-1120.235717773438	-485.1782836914064	1737.8564453125	-973.9548950195315	-516.9831542968751	1592.289184570313	-1063.564819335938	-485.457489013672	1253.565185546875	-1049.097778320313	-353.8759460449219	1558.579833984375	-1046.1904296875	-354.8740539550782	1595.599609375	-1219.234008789063	-172.5081329345703	1548.257080078125	-1308.727172851563	-146.3611755371094	1582.309204101563	-1283.178100585938	-103.8662719726563	1547.4150390625	-1309.8935546875	-40.04598236083985	1557.436645507813	-1300.89794921875	-34.20884704589844	1492.999755859375	-1266.391967773438	245.2264862060547	1612.538696289063	-1171.443115234375	251.9934234619141	1607.532836914063	-1251.407836914063	342.4156799316407	1640.576049804688	-1181.532592773438	-376.6760559082032	1595.233520507813	-885.8020019531252	-217.1777801513672	1568.937255859375	-777.6224365234377	-192.5155487060547	1595.288940429688	-812.3472900390627	-147.4541168212891	1571.448120117188	-779.0471191406252	-82.67423248291017	1581.172973632813	-788.258239746094	-74.49691772460939	1507.647094726563	-815.2608642578127	201.2318115234376	1616.454467773438	-881.0984497070315	210.8380737304688	1624.820556640625	-802.5542602539065	300.7748107910157	1635.156494140625	-878.1730957031252	-256.9088745117188	1066.487548828125	-1146.79345703125	-304.5317382812501	1117.376342773438	-872.8549804687502	-482.4725646972657	1145.959350585938	-1042.466918945313	-480.651092529297	1114.107055664063	-1068.857666015625	-492.997039794922	1114.366577148438	-1014.507019042969	-317.7434692382813	849.1103515625002	-1186.9638671875	-288.3422546386719	770.5205688476565	-1176.74951171875	-241.0508880615235	774.1518554687502	-1172.63720703125	-317.8451843261719	719.8789062500001	-1160.586791992188	-291.6307678222657	572.9277954101564	-1128.321166992188	-284.1305541992188	558.0047607421876	-994.0045166015627	-271.0999145507813	350.6184387207032	-1044.957763671875	-303.7875671386719	304.2715454101563	-1113.096923828125	-272.2237548828126	300.6479797363282	-1077.333618164063	-284.4065856933594	225.7081909179688	-1041.714111328125	-351.8369750976563	108.6167297363282	-1082.223510742188	-407.1759643554689	79.22597503662111	-1027.472900390625	-195.8184204101563	56.70162200927736	-1011.328979492188	-192.4965209960938	56.73421478271486	-1053.810668945313	-321.7560729980469	124.4100799560547	-998.4514770507815	-160.4144897460938	864.075622558594	-772.5639648437502	-93.34459686279298	860.1682739257815	-766.3013305664064	-72.36944580078126	886.7136840820315	-772.275329589844	-50.76235198974611	789.3043212890627	-771.8818969726565	-10.12884521484375	737.9566040039064	-769.4619140625002	39.32994842529298	746.4801025390626	-889.6953125000002	104.0338821411133	646.9230346679689	-771.7969360351565	84.20528411865236	544.4315185546876	-748.1210937500001	125.5418090820313	563.5285034179689	-759.9911499023439	158.7840728759766	530.3930053710939	-797.0352783203127	185.9580078125	336.4711914062501	-762.1516723632814	220.1365509033204	366.4698791503907	-843.128356933594	162.8680725097657	276.3683776855469	-829.1538085937502	359.1042175292969	380.1330871582032	-776.3751220703127	350.1380004882813	373.5847473144532	-739.2817382812501	338.4213562011719	338.9510192871094	-698.7678833007814	
386	1.925	-341.1866455078126	1854.776611328125	-1046.666015625	-476.7242431640626	1744.244018554688	-1120.584838867188	-485.4852600097657	1737.703369140625	-974.346374511719	-517.2308349609376	1592.047973632813	-1063.83837890625	-485.667694091797	1253.3173828125	-1049.363525390625	-354.2261962890626	1558.416015625	-1046.461791992188	-355.1619873046876	1595.43994140625	-1219.471557617188	-172.7417297363282	1548.169311523438	-1308.927612304688	-146.6861572265625	1582.067260742188	-1283.386352539063	-103.9265594482422	1547.123657226563	-1309.949096679688	-40.23102951049805	1557.187622070313	-1300.972290039063	-34.55582427978516	1492.8583984375	-1266.536743164063	244.9072570800782	1612.1533203125	-1171.532592773438	251.7899169921876	1607.23974609375	-1251.525146484375	342.0252380371094	1640.052612304688	-1181.609497070313	-377.0582275390626	1595.189086914063	-885.999938964844	-217.4333648681641	1568.890380859375	-777.9519653320315	-192.8848876953126	1595.15673828125	-812.681579589844	-147.6114044189453	1571.552734375	-779.333435058594	-82.87107086181642	1581.372680664063	-788.362243652344	-74.72422790527345	1507.652587890625	-815.525573730469	200.8528747558594	1616.45703125	-881.3220214843752	210.5583953857422	1624.874145507813	-802.8034667968752	300.5332336425782	1635.170288085938	-878.3784790039065	-256.7729492187501	1066.7509765625	-1147.135986328125	-304.5490722656251	1117.360107421875	-873.2781372070315	-482.515838623047	1145.786376953125	-1042.722900390625	-480.6246337890626	1113.886108398438	-1069.164916992188	-492.9390869140626	1114.073364257813	-1014.752868652344	-317.9932556152344	849.0179443359377	-1187.2568359375	-288.3522949218751	770.373229980469	-1177.025634765625	-241.1284637451172	774.3193359375002	-1173.464965820313	-317.9720458984376	719.7299804687501	-1160.78125	-291.9590454101563	573.0151977539064	-1128.6904296875	-283.6130065917969	557.9844970703126	-994.4005126953127	-270.9655761718751	350.7144165039063	-1045.16357421875	-303.9051818847657	304.2500915527344	-1113.286499023438	-272.1988525390626	300.7213134765626	-1077.6201171875	-284.4943237304688	225.854965209961	-1042.009033203125	-351.7188720703126	108.509880065918	-1082.267578125	-407.1512756347657	79.23970794677736	-1027.495483398438	-195.8521881103516	56.71564102172853	-1011.417541503906	-192.4027862548829	56.73052978515626	-1053.871826171875	-321.7400512695313	124.5308074951172	-998.528503417969	-159.3541412353516	864.951110839844	-772.985290527344	-92.48011016845705	861.1871337890627	-766.9132080078126	-71.58202362060548	887.5103149414065	-772.7906494140627	-49.47546768188478	790.4428710937502	-772.3177490234377	-8.379726409912111	739.4840698242189	-769.8052978515627	40.5883903503418	747.8997802734376	-890.038513183594	106.7172470092774	648.9984741210939	-772.2923583984377	87.33035278320314	546.6611938476564	-748.1606445312501	128.3677825927735	565.7839355468751	-760.1757202148439	161.8028869628907	533.1331176757814	-797.3181762695315	190.7593688964844	339.2728271484376	-761.9291992187501	224.7613983154297	369.2745361328126	-842.9929809570315	167.7845001220703	278.7422180175782	-828.324890136719	363.2391662597657	384.2171325683595	-777.446960449219	354.7095031738282	378.1008911132813	-740.2053222656251	343.6447753906251	343.4954223632813	-699.4853515625001	
387	1.93	-341.4646911621094	1854.331176757813	-1047.115844726563	-476.8879394531251	1743.8310546875	-1120.90673828125	-485.7727355957032	1737.669555664063	-974.6211547851565	-517.5378417968751	1591.8876953125	-1064.06689453125	-485.7630615234376	1253.197265625	-1049.632202148438	-354.4007263183594	1558.401733398438	-1046.69287109375	-356.6271667480469	1595.492919921875	-1219.967529296875	-172.9427947998047	1547.960327148438	-1309.139770507813	-146.9501037597657	1581.934326171875	-1283.585083007813	-104.3124542236328	1547.046997070313	-1310.187744140625	-40.58865356445313	1557.02880859375	-1301.133056640625	-34.80679321289063	1492.6337890625	-1266.784790039063	244.5731048583985	1611.840576171875	-1171.70849609375	251.4585113525391	1606.99560546875	-1251.661010742188	341.9472656250001	1640.1357421875	-1181.504272460938	-377.3286743164063	1595.094116210938	-886.2380981445315	-217.7080688476563	1568.8564453125	-778.250915527344	-193.0295867919922	1595.142456054688	-812.9880981445315	-147.8578033447266	1571.61083984375	-779.539733886719	-83.03052520751955	1581.508544921875	-788.3892211914065	-74.98491668701173	1507.635375976563	-815.8190917968752	200.6177673339844	1616.470336914063	-881.6857910156252	210.2670288085938	1624.895629882813	-803.1014404296877	300.2540893554688	1635.197265625	-878.5305786132815	-256.6489562988282	1066.972900390625	-1147.474609375	-304.6119995117188	1117.4130859375	-873.7039794921877	-482.4690246582032	1145.463012695313	-1043.047729492188	-480.5816345214845	1113.602783203125	-1069.445556640625	-492.8591613769532	1113.853881835938	-1015.087036132813	-318.2257385253907	848.9558105468752	-1187.466186523438	-288.6599121093751	770.4278564453127	-1177.43212890625	-241.4197540283204	774.0423583984377	-1173.883911132813	-318.1611938476563	719.6884155273439	-1160.939331054688	-292.1943359375001	573.1043701171876	-1129.048095703125	-283.1489257812501	558.0112304687501	-994.7910156250002	-270.9325561523438	350.6602478027344	-1045.339721679688	-303.8413391113282	304.1662902832032	-1113.530395507813	-272.3426513671876	300.7993469238282	-1077.750732421875	-284.3875427246094	225.7484130859376	-1042.14453125	-351.7041931152344	108.4360885620117	-1082.310913085938	-407.1329650878907	79.19996643066408	-1027.526000976563	-195.8091125488282	56.70762634277345	-1011.48193359375	-192.506820678711	56.81576919555665	-1053.990356445313	-321.7405700683594	124.4600677490235	-998.619323730469	-158.3707122802735	865.7476806640627	-773.3265380859377	-91.45570373535158	862.2231445312502	-767.1998901367189	-70.57038879394533	888.8112792968752	-773.2763671875002	-48.64777755737306	791.2027587890627	-772.8833618164065	-6.764811038970949	740.9464111328126	-770.0930175781252	42.5227165222168	749.4783325195314	-890.4788818359377	108.7002258300782	651.4838867187501	-772.7415771484377	90.42816162109376	548.8773193359376	-748.1149902343751	131.3447875976563	568.4918823242189	-760.6372680664064	164.879867553711	535.4691772460939	-797.586364746094	195.3464508056641	342.3612365722657	-761.7107543945314	227.9893646240235	372.1530761718751	-843.2288818359377	172.6652526855469	281.1517028808594	-827.606872558594	367.4364624023438	388.9348754882814	-778.5237426757815	359.2030334472657	382.5743713378907	-741.1351318359376	348.5964965820313	348.0516052246094	-700.1306152343751	
